# xmcd
#
# Track frame offsets: 
#        150
#        20313
#        38387
#        58664
#        86415
#        124445
#        153399
#        172560
#        189919
#        213647
#        236462
#        254292
#
# Disc length: 3740 seconds
#
# Revision: 0
# Processed by: cddbd v1.5.2PL0 Copyright (c) Steve Scherf et al.
# Submitted via: ExactAudioCopy v0.99pb5
#
DISCID=8d0e9a0c
DTITLE=The Haggis Horns - Hot Damn!
DYEAR=2007
DGENRE=Funk
TTITLE0=Enter The Haggis
TTITLE1=Pipe Bag
TTITLE2=Hot Damn!
TTITLE3=The Traveller Pt 1
TTITLE4=The Traveller Pt 2
TTITLE5=Eskimo
TTITLE6=Huffalump
TTITLE7=The Bump
TTITLE8=Got To Lose Your Way
TTITLE9=Tribe Vibes
TTITLE10=The Naughty Buddha
TTITLE11=Who's Gonna Take The Weight?
EXTD=
EXTT0=
EXTT1=
EXTT2=
EXTT3=
EXTT4=
EXTT5=
EXTT6=
EXTT7=
EXTT8=
EXTT9=
EXTT10=
EXTT11=
PLAYORDER=
